<?xml version="1.0" encoding="utf-8"?>
<svg version="1.1" id="Layer_1" xmlns="http://www.w3.org/2000/svg" xmlns:xlink="http://www.w3.org/1999/xlink" x="0px" y="0px"
	 viewBox="0 0 1996.919 1657.722" enable-background="new 0 0 1996.919 1657.722" xml:space="preserve">
<path fill="#090606" d="M1959.938,209.784c-2.11-1.547-4.43-3.074-7.103-3.179c-2.912,0.372-5.194,2.339-6.454,4.898
	c-0.764,2.797-1.871,5.499-3.389,7.962c-2.769,4.325-4.621,9.146-6.846,13.748l-0.687,0.086c1.489-10.588,5.222-20.679,6.912-31.219
	c0.983-2.339,1.719-4.774,2.435-7.199c0.931-10.755,8.319-22.056-3.552-31.592c-0.735,0.038-2.206,0.105-2.941,0.143
	c-2.425-3.857-3.513-9.08-7.867-11.304c-2.043-1.365-4.592-0.917-6.884-0.993c-1.69,1.088-3.37,2.186-5.06,3.236
	c-1.031,4.096-2.196,8.153-3.17,12.259c-4.993,8.048-3.485,18.111-7.199,26.637c-2.673,5.633-4.105,11.715-5.547,17.739
	c-3.666,9.528-7.275,19.266-13.691,27.363c-0.076,0.458-0.229,1.375-0.305,1.843c-4.354,4.163-3.676,10.817-6.559,15.782
	c-1.661,2.826-2.74,6.015-4.85,8.535c-2.845,2.74-3.762,6.836-6.779,9.442c-5.069,7.418-9.49,15.295-14.827,22.532
	c-2.1,5.652-6.664,9.91-9.089,15.4c-1.919,1.289-3.017,3.303-3.924,5.346c-7.379-1.927-14.61,0.994-20.899-1.088
	c-3.638,1.91-8.039,1.432-11.609,3.542c-4.497,2.32-4.926,8.745-9.433,10.874c-1.843-1.461-4.268-2.358-6.492-1.222
	c-7.281-1.6-18.739,0.754-20.164,9.118c-1.098,2.148-1.623,4.506-1.843,6.893c-0.363,0.42-1.098,1.26-1.47,1.68
	c-0.802-2.931-2.864-5.175-4.764-7.418c-9.917-9.599-20.45-3.21-22.78,0.42c-5.356-1.002-10.616-2.616-16.078-2.883
	c-1.976,1.384-4.478,0.812-6.702,1.088c-1.614,0.582-3.265,1.022-4.879,1.48c-5.728,1.375-8.994,6.96-13.939,9.71
	c-2.081-0.391-4.125-1.098-6.168-0.248c-2.205-1.136-4.726-0.41-7.027-0.219c-3.351,0.516-6.884,0.563-9.901,2.272
	c-3.743,2.11-8.211,2.702-11.609,5.432c-1.594,0.554-3.065,1.413-4.678,1.814c-2.358-0.153-4.573-1.126-6.855-1.585
	c-3.523-2.797-8.306-1.432-12.411-1.327c-3.072,1.024-7.894,2.63-10.588,4.458c-2.435,0.019-4.821-0.315-7.189-0.706
	c-0.392-0.306-1.193-0.907-1.594-1.213c-2.415,0.01-4.812,0.048-7.199,0.22c-1.289,0.458-2.559,0.85-3.838,1.232
	c-3.342,2.158-6.75,4.258-9.423,7.246c-5.07,1.528-10.426,0.296-15.543,1.404c-7.752,1.27-15.638,1.585-23.305,3.323
	c-4.821-0.096-9.576,0.63-14.311,1.394c-2.835,0.821-5.576,2.139-8.554,2.291c-3.8,0.229-7.771,0.63-11.008,2.797
	c-0.516,0.067-1.537,0.21-2.053,0.277c-0.411,0.43-1.241,1.289-1.661,1.709c-0.506,0.105-1.508,0.296-2.015,0.391
	c-3.504,2.75-7.609,4.774-12.01,5.499c-7.998,1.054-9.255-2.813-17.347,3.704c-2.606,0.191-5.175-0.076-7.733-0.43
	c-2.807,0.2-5.595,0.726-8.402,0.754c-16.139,5.425-16.741-0.701-35.258,13.958c-3.217,1.508-5.767,4.058-8.841,5.728
	c-9.775,1.88-11.348-0.329-33.969,3.838c-6.677-4.119-4.429-3.551-12.832-5.576c-2.635,0.812-5.117,1.986-7.59,3.17
	c-10.903,1.405-13.661-4.061-30.389,2.253c-5.767,2.139-9.127-4.306-13.958-5.948c-4.812-1.48-9.833-0.01-14.531,1.174
	c-2.32,0.659-4.516-0.64-6.798-0.63c-8.086,0.076-15.82-3.676-23.954-2.511c-10.139,1.451-20.431-0.907-30.523,1.174
	c-5.251,0.42-9.805,4.105-15.18,3.504c-19.766-1.89-16.026,6.058-21.357,11.008c-1.623-1.241-3.237-2.473-4.831-3.733
	c-4.01-0.726-8.144-0.21-11.504,2.205c-2.654-2.32-5.337-5.07-9.07-5.327c-5.356-1.423-9.643,2.893-13.404,5.986
	c-1.27-2.788-1.957-6.139-4.516-8.077c-2.291-0.764-4.774-0.64-7.113-1.088c-0.153-2.721,0.497-5.356,0.85-8.02
	c-0.057-2.883-0.668-5.709-0.783-8.583c0.048-4.038-2.415-7.466-3.17-11.333c-0.85-4.039-4.993-7.017-4.153-11.476
	c0.43-1.995-0.554-3.762-1.852-5.184c-2.368-2.568-3.504-5.9-5.079-8.936c4.039-9.795,7.208-20.536,5.003-31.181
	c-1.298-3.752-4.497-7.342-8.736-7.323c-4.306-0.955-8.067,1.47-11.906,2.883c2.836-11.877,3.189-24.183,3.007-36.327
	c-1.098-5.251-1.661-10.588-2.053-15.925c-0.573-5.547-3.418-10.741-2.606-16.402c-2.463-3.628-4.277-7.81-5.098-12.115
	c-2.387-4.172-5.957-7.6-7.819-12.077c-0.716-1.881-2.578-2.864-4.096-3.981c-0.057-0.525-0.182-1.575-0.239-2.1
	c-2.816-2.377-4.65-5.7-7.657-7.848c-2.291-1.661-2.482-5.003-4.936-6.511c-2.31-1.461-4.22-3.38-5.91-5.49
	c-2.559-1.967-4.974-4.067-7.208-6.368c-9.914-4.893-10.358-3.86-13.252-7.103c-2.578-1.375-5.318-2.53-8.277-2.549
	c-0.401-0.382-1.222-1.155-1.623-1.537c-1.337-0.095-2.654-0.191-3.953-0.277c-1.967-1.069-3.848-2.549-6.148-2.683
	c-2.399-0.315-19.189-2.892-20.87-3.819c-5.413,1.117-11.113-0.506-16.364,1.719c-2.148,1.508-4.755,0.563-7.132,0.468
	c-3.342,2.635-8.163,1.623-11.514,4.258c-1.776,0.22-3.561,0.353-5.328,0.42c-4.693,2.184-2.919,0.191-11.743,5.156
	c-6.655,1.002-9.719,8.22-16.164,9.881c-0.697,2.024-2.205,3.494-3.933,4.669c-0.516,0.048-1.537,0.143-2.053,0.191
	c-1.441,1.566-2.979,3.055-4.688,4.315c-2.043,2.053-3.447,4.621-5.528,6.626c-2.988,3.475-4.774,7.867-8.029,11.132
	c-1.852,1.69-4.745,2.797-5.108,5.595c-4.367,21.061-15.485,42.455-16.923,52.633c-0.857,6.063,0.964,10.624,2.664,16.236
	c0.297,0.982,3.356,3.086,2.958,4.11c-0.704,1.813-4.745,2.16-4.594,1.709c-1.411,4.226-9.604,5.829-13.008,8.271
	c-14.752,10.586-15.622,29.432-23.4,44.401c-3.653,7.031-7.876,12.297-10.289,20.374c-2.282,7.638,1.203,15.39,0.697,23.123
	c0.21,1.766-1.995,1.9-3.046,2.616c-2.186-2.54-3.743-5.595-6.292-7.819l0.506-0.048c-2.902-2.692-6.931-4.277-10.798-2.683
	c-6.794,3.899-11.977-8.88-24.794-12.507c-9.92-5.233-29.205-1.76-37.387-3.103c-7.38-1.155-14.913,0.315-22.283-0.936
	c-5.442-0.888-10.96-0.248-16.44-0.516c-11.068-6.499-15.375-2.744-20.078-0.964c-4.459-1.881-8.917-3.762-13.395-5.566
	c-7.285-2.941-15.161-0.535-22.723-1.069c-6.177,0.401-12.335,1.327-18.369,2.721c-2.874,0.878-4.764-1.957-6.826-3.389
	c-5.977-4.506-12.784-7.714-19.4-11.113c-6.187-2.454-13.051-1.699-19.41-3.437c-5.929-1.318-11.18-4.678-17.242-5.471
	c-11.753-2.12-23.229-6.349-35.306-6.072c-3.265-0.267-7.609-0.821-8.86-4.392c-7.992-17.25-15.971-9.244-29.224-14.665
	c-8.23-3.122-16.908-4.917-24.995-8.382c-6.629-2.906-11.628-1.633-20.403-3.218c-7.741-4.725-10.892-10.96-24.479-11.323
	c-5.098,0.029-9.146-3.771-14.092-4.42c-3.246-0.42-6.654,0.115-9.738-1.213c-2.435-1.06-4.745-2.482-7.418-2.874
	c-7.561-1.518-13.28-7.724-21.109-8.402c-6.187-0.201-10.874-4.592-16.402-6.731c-2.463-0.936-4.592-2.568-7.084-3.408
	c-11.504-2.072-21.185-9.261-32.251-12.669c-4.592-1.843-9.118-4.172-14.149-4.439c-11.841,0.228-18.019-2.897-29.768,2.702
	c-0.477-0.229-1.432-0.697-1.909-0.926c-2.836-3.876-5.175-8.278-9.156-11.161c-4.879-2.912-10.989-2.387-15.858-5.337
	c-3.16-2.501-5.27-6.416-9.079-8.01c-2.912-0.372-5.872,0.363-8.745-0.344c-3.504-4.354-7.218-8.946-12.736-10.741
	c-2.387-0.067-4.764-0.22-7.151-0.21c-3.657-0.086-7.18,1.356-10.846,0.878c-3.58-2.645-8.106-3.58-11.676-6.272
	c-2.559-0.926-5.136-1.805-7.771-2.501c-0.582-0.697-1.165-1.394-1.738-2.091c-3.447-1.146-6.607-2.96-10.044-4.115
	c-3.924-1.356-7.122-4.64-11.39-4.965c-2.463,0.525-4.63,2.053-7.199,2.206c-0.926,0.859-1.843,1.728-2.74,2.616
	c-2.454-1.967-4.755-4.105-6.95-6.339c-0.496-0.134-1.48-0.391-1.976-0.525c-3.657-3.733-7.294-7.504-11.38-10.779
	c-0.754-1.107-1.728-2.014-2.788-2.807c-1.356-1.814-2.797-3.58-4.573-4.993c-3.294-2.33-3.848-6.874-7.046-9.29
	c-2.358-1.881-5.117-3.284-7.103-5.614c-5.547-6.444-11.839-12.154-17.768-18.245c-4.506-4.735-10.053-8.354-14.149-13.481
	c-6.053-4.707-10.139-11.247-14.903-17.109c-3.475-3.122-5.346-7.609-8.736-10.798c-5.031-3.943-8.917-9.213-11.858-14.856
	c-1.48-2.358-3.466-4.42-4.411-7.094c-1.652-4.22-4.44-7.886-5.881-12.201c-0.926-1.031-1.986-2.024-2.511-3.342
	c-2.263-5.346-5.003-10.483-6.903-15.982c-1.508-2.062-2.96-4.182-4.096-6.473c-2.062-4.268-5.49-7.638-8.182-11.495
	c-1.843-3.026-2.683-6.893-5.671-9.06c-2.96-2.053-6.53-0.191-9.738-0.01c-7.485,4.589-3.579,7.7-6.187,11.065
	c0.76,4.887,1.43,6.588,3.198,9.948c-0.668-0.019-1.995-0.057-2.664-0.076c-1.604,1.422-3.571,2.454-4.965,4.096
	c-2.75,4.306-2.711,9.986-0.592,14.55c0.974,8.573,8.815,17.215,10.053,26.656c2.998,5.327,6.425,10.387,9.366,15.743
	c4.831,6.893,7.905,14.856,13.08,21.529c0.525,1.652,1.518,3.055,2.75,4.258c0.573,1.766,1.298,3.494,2.244,5.098
	c-1.661-1.26-3.513-2.234-5.366-3.17c-2.253,0.038-4.506,0.124-6.75,0.21c-4.841,4.22-3.504,11.438-0.945,16.536
	c3.313,3.685,6.416,7.533,9.862,11.104c2.969,1.346,5.07,3.924,7.552,5.948c14.013,11.786,25.045,15.693,30.036,18.837
	c-0.029,4.229,1.528,8.23,1.719,12.431c-0.201,2.311-0.668,4.592-0.936,6.903c-7.663-3.958-18.742-8.654-26.312-4.716
	c-1.9,2.12-3.58,4.43-5.394,6.607c-0.554,4.134-1.766,8.239-1.413,12.44c0.808,2.251,1.508,4.427,1.804,6.798
	c2.043,1.929,3.819,4.411,6.626,5.27c4.459,1.823,9.404,1.719,13.872,3.504c2.921,0.344,5.872,0.582,8.822,0.401
	c0.764,0.697,1.528,1.403,2.301,2.12c5.479,13.177,20.691,12.164,29.511,18.741c7.428,3.61,23.032,13.23,43.87,9.748
	c0.363,0.277,1.069,0.84,1.422,1.127c4.134,0.162,9.003,0.181,11.915,3.628c-0.067,2.444,0.019,4.965,1.279,7.151
	c4.09,1.121,10.453,4.966,13.987,7.275c1.594,4.907,1.48,10.158,2.521,15.19c0.525,3.685,4.096,5.604,5.623,8.803
	c1.747,3.504,4.334,6.941,8.411,7.762c3.208,1.432,6.139-1.05,9.242-1.413c3.668,0.759,11.497,7.027,25.434,6.95
	c4.916,3.357,25.511,32.532,52.472,43.087c7.218,3.427,14.493,6.788,22.159,9.089c11.715,4.487,22.541,11.476,34.943,14.034
	c7.18,1.995,15.667,2.559,20.832,8.631c6.865,6.616,13.863,14.111,23.572,16.202c9.872,1.68,17.557,8.497,25.377,14.225
	c3.943,2.11,8.325,3.456,12.001,6.005c14.623,16.69,24.29,12.691,46.82,26.589c6.034,3.943,13.299,5.184,19.83,8.02
	c26.752,16.516,98.352,40.742,107.923,45.903c31.261,12.303,64.387,28.842,64.387,28.842c8.43,3.542,15.82,8.984,23.515,13.834
	c9.581,5.811,44.544,21.947,54.859,32.031c4.783,6.55,9.605,13.233,12.688,20.784c8.387,16.444,21.587,51.822,22.302,54.133
	c12.735,36.76,10.095,25.907,10.053,44.051c0.086,6.597,0.936,13.328-0.496,19.849c-1.661,7.972-0.974,16.326-3.561,24.126
	c-1.986,5.404-3.332,11.046-6.034,16.164c-2.377,6.072-3.389,12.622-4,19.085c-1.022,8.249-2.616,16.469-2.769,24.804
	c0.401,6.072-1.537,11.944-1.833,17.978c0.134,3.485-2.979,5.528-5.175,7.695c-1.499,0.105-2.998,0.239-4.468,0.42
	c-3.265,2.014-7.18,2.444-10.54,4.249c-6.806,3.371-7.607,2.721-8.994,4.85c-0.611,0.057-1.852,0.191-2.463,0.258
	c-0.353,0.258-1.06,0.764-1.403,1.022c-1.833,0.668-3.638,1.365-5.432,2.091c-6.179,5.942-33.187,8.603-36.404,56.3
	c-1.747,8.411,0.468,16.889,0.487,25.348c2.339,8.583,1.079,18.359,6.187,26.083c1.289,2.329,2.855,4.65,3.217,7.361
	c-3.201,10.65-11.552,20.379-13.08,29.549c-3.7,51-0.638-1.325-3.313,62.191c-2.606,10.641,2.348,12.907-1.862,35.688
	c1.127,1.919,2.988,3.208,4.325,4.965c5.031,3.093,11.514,3.857,15.295,8.764c0.487,0.048,1.451,0.162,1.938,0.21
	c1.241,0.955,2.54,1.843,3.867,2.702h1.957c0.983,0.716,1.948,1.508,2.864,2.377c1.155,0.449,2.253,1.041,3.122,2.005
	c1.566,0.439,3.132,0.945,4.659,1.594c1.146,1.699,2.578,3.189,4.086,4.602c0.621,0.019,1.862,0.057,2.473,0.067
	c1.499,1.547,3.141,3.026,5.308,3.552c4.248,1.079,6.53,5.557,10.874,6.435c2.778,0.754,4.86,2.864,6.941,4.745
	c1.909,0.258,3.666,1.06,4.688,2.788c4.344,0.888,7.609,3.924,11.781,5.241c5.07,3.065,8.096,8.392,10.55,13.586
	c1.165,4.134,4.554,7.075,6.359,10.903c1.699,3.485,4.115,6.54,6.702,9.414c1.136,2.664,2.177,5.442,4.039,7.724
	c0.592,2.196,2.368,3.59,3.723,5.308c4.411,7.103,7.791,14.846,12.946,21.481c2.482,2.702,2.473,6.76,5.012,9.442
	c5.064,6.157,11.69,20.83,16.622,27.926c0.105,0.43,0.305,1.298,0.411,1.728c5.909,7.076,4.274,10.382,18.264,33.101
	c1.05,1.241,1.9,2.645,2.654,4.105c1.47,1.68,1.976,3.905,2.711,5.977c0.42,0.372,1.27,1.108,1.69,1.48
	c1.938,4.439,5.394,7.981,7.39,12.402c1.594,3.37,4.172,6.148,5.767,9.538c0.678,1.461,1.499,2.912,2.902,3.838
	c0.086,0.535,0.267,1.594,0.353,2.12c5.55,7.702,17.841,29.427,18.503,30.427c1.373,6.088,15.507,22.765,17.93,46.505
	c2.349,7.371,1.833,15.591,5.356,22.637c3.532,5.041,7.304,10.311,12.383,13.863c1.413,4.755-0.726,9.5-1.136,14.254
	c-2.494,12.529-3.982,40.783-14.092,56.081c-3.924,1.241-9.5,3.447-8.545,8.593c1.919,5.642,1.375,11.6-0.01,17.29
	c-2.425,8.249,0.449,16.746,2.034,24.871c0.831,5.051,5.852,7.227,10.158,8.669c-5.319,18.851-9.023,16.364-5.003,34.542
	c1.537,5.022,2.673,10.75,7.227,14.015c9.223,7.6,21.873,7.848,33.263,7.456c7.332-1.289,14.922-1.06,22.15-3.112
	c3.542-1.222,7.495-1.222,10.76-3.217c2.931-0.859,5.967-1.337,8.85-2.387c7.466-3.361,15.333-5.948,22.331-10.292
	c29.29-15.014,32.284-27.422,35.249-43.001c0.974-6.254,3.093-12.822,0.926-19.047c-1.871-4.478-3.217-9.204-5.996-13.223
	c-2.234-4.363-6.359-7.838-7.208-12.803c1.822-14.608,2.485-12.758,6.168-23.935c0.735-1.738,1.403-3.666,2.969-4.821
	c2.94,0.64,5.146,3.017,8.039,3.895c3.695,1.136,7.065,3.074,10.55,4.745c2.406,1.174,5.346,1.384,7.256,3.475
	c4.096,1.929,28.403,10.175,37.378,23.62c7.83,10.936,27.739,19.96,43.908,31.391c9.182,7.467,40.603,20.687,50.534,21.777
	c7.638,0.773,14.751,4.64,22.513,4.43c8.936,2.473,18.417,2.501,27.611,1.738c10.561-1.884,11.42-5.902,13.739-15.371
	c1.725-8.948-21.042-20.144-28.365-26.713c-0.353-2.921-1.222-5.805-1.021-8.755c0.2-2.721,2.654-4.382,3.8-6.674
	c5.591-10.95-1.867-27.214-8.249-37.664c-2.12-3.561-4.44-7.075-4.382-11.409c-0.754-3.294-2.606-6.158-5.471-7.981
	c-4.658-0.141-3.207-3.914-9.881-1.069c-4.435-3.251-15.677-15.969-17.376-21.644c-2.473-4.039-5.681-7.705-9.328-10.722
	c-1.117-2.31-2.263-4.63-4.325-6.254c-4.993-7.275-11.056-13.805-15.495-21.472c-4.712-7.505-0.927-16.95-0.955-22.064
	c-0.615-24.873,13.037-65.514,16.326-71.328c2.587-4.468,3.189-9.796,6.053-14.12c3.495-5.122,7.843-21.534,10.769-26.427
	c15.057-35.332,20.172-50.099,29.253-75.108c0.325-1.461,1.05-2.759,2.015-3.886c2.597-5.786,3.361-12.23,6.521-17.787
	c3.255-7.991,6.015-16.192,9.528-24.078c3.819-8.478,5.767-17.72,10.387-25.844c2.902-4.936,4.535-10.445,5.805-15.982
	c2.091-1.709,3.017-4.268,3.886-6.731c2.072-2.559,1.757-6.139,3.609-8.793c2.301-3.685,5.833-6.339,8.22-9.958
	c1.518-2.435,4.774-2.721,6.511-4.927c1.728-2.091,3.599-4.067,5.862-5.595c1.318-3.809,2.635-7.619,4.019-11.399
	c-1.108-3.981-1.021-8.192-0.792-12.268c7.189-13.082,6.078-23.057,7.504-37.043c0.095-5.719-2.301-11.466-0.821-17.147
	c0.945-4.516,0.277-9.232,1.633-13.681c0.907-7.705,4.039-14.951,4.869-22.675c0.029-2.912-0.477-5.805-0.076-8.698
	c0.477-3.695-0.907-7.323-0.239-11.008c-0.411-3.227,0.429-6.53,2.1-9.29c3.074-4.984,5.146-10.531,8.488-15.362
	c5.574-9.554-3.858-41.026-7.447-50.992c-1.661-4.039-5.308-6.702-7.762-10.196c-3.447-5.156-8.297-9.127-12.755-13.357
	c-1.642-1.843-3.16-3.953-5.576-4.802c-4.086-1.661-8.096-3.771-12.469-4.506c-0.659-2.072-3.074-1.47-4.717-1.843
	c-4.685-3.108-16.68-5.504-21.214-7.676c-3.714-2.024-8.02-2.368-12.125-2.855c-1.136-0.525-2.196-1.184-3.389-1.461
	c-9.726-0.809-27.063-0.076-34.924,4.229c-4.258,0.334-7.256,3.427-10.874,5.261c-4.965,3.303-10.674,5.232-15.362,8.965
	c-3.284,3.313-8.02,4.22-11.743,6.855c-1.499,0.792-3.58,2.492-5.156,1.107c-1.68-2.75-2.654-5.852-3.771-8.841
	c-1.241-4.334,1.499-8.344,2.119-12.536c0.754-5.051,2.721-9.767,4.898-14.34c7.166-19.042,6.921-38.76,23.209-88.255
	c4.764-17.672,12.287-34.695,22.713-49.78c1.413-2.95,3.303-5.604,5.442-8.068c6.667-9.15,20.737-32.772,38.542-48.5
	c6.526-5.949,9.199-12.831,44.977-22.913c9.838-3.375,58.019-14.363,104.963-32.384c6.502-2.778,13.376-4.621,19.696-7.829
	c25.196-11.922,47.951-18.29,57.99-22.474c8.344-5.184,17.538-8.85,25.787-14.187c3.37-1.05,6.177-3.313,9.461-4.592
	c3.427-1.365,6.664-3.17,9.862-5.022c3.924-0.477,7.876-1.232,11.533-2.826c13.243-0.987,20.997-8.794,28.059-9.786
	c3.953-0.64,7.714-2.253,11.772-2.358c14.703-3.098,15.261-2.509,16.393-4.01c18.061-3.973,25.428-11.951,37.53-11.123
	c5.499-0.716,10.827-2.339,16.345-3.046c3.599-0.487,6.74-2.406,10.072-3.752c17.867-7.816,22.084-3.931,30.704-7.867
	c3.867-1.862,7.781-3.733,11.982-4.755c4.936-0.735,9.662-2.435,14.55-3.475c7.514-3.733,14.55-8.545,22.541-11.294
	c2.568-1.174,5.385-2.32,7.18-4.602c1.881-0.191,3.866-0.334,5.661,0.525c6.74,2.731,14.817,3.657,21.548,0.42
	c4.458-1.967,9.318-3.026,13.414-5.776c3.59-1.394,6.826-3.523,10.34-5.07c9.781-2.114,20.808-13.639,24.852-15.82
	c1.155-2.139,3.179-3.447,5.222-4.65c4.573-2.492,9.7,0.945,14.321-1.442c1.852-0.897,3.819-1.527,5.843-2.014
	c7.943-5.614,11.514-15.581,10.979-25.071c5.28-4.287,7.877-10.807,12.66-15.476c2.664-5.27,3.198-11.418,2.043-17.166
	c3.275-4.249,8.898-6.874,10.321-12.373c2.139-3.237,1.833-7.237,2.435-10.922c-1.575-3.456-2.415-7.514-0.048-10.836
	c0.267-4.516,1.203-9.375,4.554-12.679c0.181-0.821,0.391-1.633,0.621-2.444c2.845-5.671,3.427-12.154,5.051-18.188
	c3.112-3.58,7.466-5.9,10.559-9.547c2.52-3.16,5.738-5.786,7.619-9.433c4.875-9.062,8.656-10.508,12.011-19.582
	c0.382-0.334,1.136-1.012,1.508-1.346c0.876-4.601,8.5-13.269,8.87-24.518C1961.923,214.987,1960.787,212.4,1959.938,209.784z
	 M1151.683,1262.239c-0.181,3.962-1.68,7.733-1.719,11.714c-0.926,11.896-4.458,23.362-6.215,35.144
	c-0.716,4.163-0.726,8.478-2.234,12.488c-1.776,4.936-2.797,10.206-5.442,14.779c-8.645,13.198-12.008,19.651-19.41,35.783
	c-0.554,5.7-0.621,11.543,0.344,17.223c1.146,9.719-0.888,19.391-1.728,29.033c-2.931,0.964-2.988,4.392-3.924,6.845
	c-2.014,0.716-1.547,2.941-1.843,4.63c-3.838,1.986-4.774,6.635-5.795,10.464c-3.771,5.681-6.358,12.307-6.597,19.171
	c-1.394,2.139-3.838,3.504-6.425,3.027c-4.525-1.012-9.175-0.535-13.748-0.754c-0.353,0.315-1.05,0.926-1.394,1.241
	c-1.022-1.518-1.967-3.036-2.759-4.65c-3.354-3.711-1.171-3.448-15.982-3.16c-0.688-0.439-1.365-0.859-2.014-1.26
	c-1.97-6.386-7.538-10.148-12.135-26.265c-5.709-13.07-10.702-26.666-11.953-40.977c-3.351-9.127-9.414-16.841-15.534-24.26
	c-2.005-2.368-4.306-4.592-7.323-5.537c-22.856-26.871-24.783-46.022-38.743-92.866c-0.974-3.332-1.002-6.845-1.948-10.168
	c-5.253-14.103-6.435-28.287-10.034-35.096c-1.127-4.927-2.406-9.824-3.781-14.674c0.239-0.764,0.706-2.282,0.945-3.046
	c4.354,0.019,8.736-0.105,13.042,0.726c6.015,0.372,12.058-0.029,18.063,0.716c1.098-0.783,2.139-1.728,3.466-2.129
	c9.061-1.105,38.074-4.52,47.545-4.058c0.306,0.439,0.917,1.318,1.222,1.747c9.098-4.089,46.538-1.71,55.613-4.84
	c3.399-1.356,6.95,1.346,10.387-0.172c20.576-7.612,16.715-5.052,56.377-24.432c1.289,0.573,3.227,1.098,2.922,2.96
	C1163.906,1196.296,1153.026,1239.777,1151.683,1262.239z"/>
</svg>
