<?xml version="1.0" encoding="UTF-8" standalone="no"?>
<!-- Created with Inkscape (http://www.inkscape.org/) -->
<svg
   xmlns:dc="http://purl.org/dc/elements/1.1/"
   xmlns:cc="http://web.resource.org/cc/"
   xmlns:rdf="http://www.w3.org/1999/02/22-rdf-syntax-ns#"
   xmlns:svg="http://www.w3.org/2000/svg"
   xmlns="http://www.w3.org/2000/svg"
   xmlns:sodipodi="http://sodipodi.sourceforge.net/DTD/sodipodi-0.dtd"
   xmlns:inkscape="http://www.inkscape.org/namespaces/inkscape"
   width="300"
   height="300"
   id="svg2"
   sodipodi:version="0.32"
   inkscape:version="0.45.1"
   version="1.0"
   sodipodi:docbase="C:\Documents and Settings\Martin\桌面"
   sodipodi:docname="drawing.svg"
   inkscape:output_extension="org.inkscape.output.svg.inkscape">
  <defs
     id="defs4" />
  <sodipodi:namedview
     id="base"
     pagecolor="#ffffff"
     bordercolor="#666666"
     borderopacity="1.0"
     gridtolerance="10000"
     guidetolerance="10"
     objecttolerance="10"
     inkscape:pageopacity="0.0"
     inkscape:pageshadow="2"
     inkscape:zoom="1.2311444"
     inkscape:cx="29.463426"
     inkscape:cy="220.59586"
     inkscape:document-units="px"
     inkscape:current-layer="layer1"
     width="300px"
     height="300px"
     inkscape:window-width="1024"
     inkscape:window-height="712"
     inkscape:window-x="0"
     inkscape:window-y="22" />
  <metadata
     id="metadata7">
    <rdf:RDF>
      <cc:Work
         rdf:about="">
        <dc:format>image/svg+xml</dc:format>
        <dc:type
           rdf:resource="http://purl.org/dc/dcmitype/StillImage" />
      </cc:Work>
    </rdf:RDF>
  </metadata>
  <g
     inkscape:label="Layer 1"
     inkscape:groupmode="layer"
     id="layer1">
    <path
       style="fill:#000000"
       d="M 152.60432,283.99882 C 151.36333,282.75784 150.34798,273.53261 150.34798,263.49831 C 150.34798,253.464 148.91931,245.25412 147.17323,245.25412 C 145.42711,245.25412 139.376,253.74709 133.72631,264.1274 C 122.92781,283.96783 116.37606,288.19659 116.37606,275.32591 C 116.37606,268.11884 129.6438,240.06622 139.93952,225.50458 C 143.88399,219.9257 142.67248,217.38865 131.68283,208.21408 C 117.53956,196.40676 120.46832,189.84629 137.06564,196.15658 C 150.81978,201.38587 151.0027,201.2903 149.65503,189.57791 C 148.65807,180.91364 146.90063,179.41163 139.02401,180.49213 C 118.64391,183.28782 109.64275,201.07345 105.57586,246.58305 C 103.75329,266.97814 101.78268,273.56405 97.502759,273.56405 C 93.026694,273.56405 91.613326,267.17653 90.75487,243.06791 C 88.892764,190.77316 104.71007,166.72448 143.41352,163.00557 C 164.89982,160.94101 169.99247,164.96122 166.7061,181.39306 C 163.90066,195.42037 170.9281,198.17005 184.63648,188.40883 C 192.65023,182.70252 197.43503,181.36626 200.14617,184.07741 C 206.0266,189.9578 194.83648,203.6909 178.17457,211.04213 L 164.06169,217.26869 L 178.02347,225.50639 C 192.62411,234.12095 199.80366,246.91987 200.74664,266.01473 C 201.47964,280.8582 191.57502,281.26484 187.64043,266.55281 C 184.63543,255.31671 174.14758,241.47945 168.63624,241.47945 C 166.88193,241.47945 165.44661,250.64002 165.44661,261.83623 C 165.44661,275.81828 163.78909,282.82906 160.15364,284.22409 C 157.24251,285.3412 153.84532,285.23985 152.60432,283.99882 z M 232.21087,273.01359 C 230.78356,271.58628 229.45197,256.6882 229.2518,239.9067 C 229.05163,223.12519 226.92839,200.0526 224.53348,188.63425 L 220.17915,167.87364 L 203.90818,168.91151 C 185.93474,170.05798 167.70892,160.18744 163.53886,147.04873 C 159.22405,133.45397 165.6868,130.83208 176.93897,141.6124 C 185.11032,149.44104 189.86661,151.26133 197.28555,149.39928 C 202.61079,148.06275 206.96784,145.38939 206.96784,143.45854 C 206.96784,140.76476 190.11717,126.43689 177.33626,118.26325 C 176.60937,117.79838 177.09415,115.67132 178.41354,113.53647 C 181.55202,108.45832 198.45524,114.74856 209.5194,125.11197 C 214.03684,129.34333 219.55727,131.67783 221.78704,130.29976 C 228.97761,125.85574 226.12216,116.66486 214.51716,106.89987 C 202.46389,96.757715 199.58197,86.718493 208.72381,86.718493 C 217.33426,86.718493 239.86674,108.35206 242.60031,119.2435 C 244.18457,125.5557 242.85314,132.40547 238.85627,138.5055 C 233.10218,147.28736 233.10301,150.46778 238.86789,182.48517 C 248.17488,234.17507 244.42098,285.22371 232.21087,273.01359 z M 60.421299,267.05732 C 54.39038,261.02641 54.445814,177.26136 60.489499,163.99691 C 63.983699,156.32796 63.983699,152.47967 60.489499,146.88457 C 52.771894,134.52672 55.456596,124.56232 70.136489,111.07937 C 92.419623,90.613104 100.97083,94.869062 86.05564,119.00234 C 75.864012,135.49273 82.381385,138.59056 97.518186,124.45066 C 118.28615,105.0505 128.89807,112.39571 110.69004,133.56778 C 98.522464,147.71606 101.23852,149.97927 120.15072,141.45103 C 139.41925,132.76213 142.63537,135.88952 128.96791,150.02494 C 115.72146,163.72487 104.56585,169.76096 92.492769,169.76096 C 80.086967,169.76096 78.234048,175.73975 75.828799,223.53054 C 73.779394,264.25088 69.553418,276.18944 60.421299,267.05732 z M 140.40191,105.87579 C 138.44879,96.110093 136.33921,94.26782 127.10972,94.26782 C 114.67826,94.26782 109.33829,85.76184 116.41596,77.233784 C 118.97846,74.14613 125.9629,71.619871 131.93686,71.619871 C 141.48909,71.619871 142.79867,70.254573 142.79867,60.295895 C 142.79867,54.067708 141.49954,48.971921 139.91177,48.971921 C 134.40477,48.971921 106.87181,65.089276 93.7281,76.00709 C 86.461884,82.042767 78.465246,88.620581 75.95779,90.624435 C 68.487111,96.594709 59.756181,94.769527 59.756181,87.237528 C 59.756181,70.51477 100.79759,34.600135 120.54317,34.043856 C 132.06994,31.384793 139.09839,20.747365 148.90697,15.000001 C 149.97656,15.000001 156.25876,18.944968 162.86746,23.766599 C 169.47614,28.588226 185.92413,37.146756 199.41853,42.785559 C 233.33289,56.957097 246.96306,68.917172 242.48836,80.578076 C 239.33504,88.795486 229.96068,88.336236 220.42242,79.49706 C 209.54503,69.416917 177.11468,52.746579 168.38228,52.746579 C 157.63594,52.746579 161.44359,64.174751 174.623,71.477358 C 190.09766,80.051731 190.80627,85.981163 176.52659,87.405914 C 166.54221,88.402096 163.77957,90.841084 160.25514,101.77115 C 154.6087,119.28211 143.54084,121.57037 140.40191,105.87579 z "
       id="path2185"
       sodipodi:nodetypes="csssssssssssssssscccsssssccscccsssssssssssssccssssssssssccssssssssccssssssssc" />
  </g>
</svg>
